<svg xmlns="http://www.w3.org/2000/svg" width="32" height="32" viewBox="0 0 32 32" fill="none">
  <rect width="32" height="32" rx="8" fill="url(#grad1)"/>
  <g transform="translate(4 4)">
    <circle cx="13.5" cy="6.5" r="1" fill="white"/>
    <circle cx="17.5" cy="10.5" r="1" fill="white"/>
    <circle cx="8.5" cy="7.5" r="1" fill="white"/>
    <circle cx="6.5" cy="12.5" r="1" fill="white"/>
    <path d="M12 2C6.5 2 2 6.5 2 12s4.5 10 10 10c.926 0 1.648-.746 1.648-1.688 0-.437-.18-.835-.437-1.125-.29-.289-.438-.652-.438-1.125a1.64 1.64 0 0 1 1.668-1.668h1.996c3.051 0 5.555-2.503 5.555-5.554C21.965 6.012 17.461 2 12 2z" stroke="white" stroke-width="2" stroke-linecap="round" stroke-linejoin="round"/>
  </g>
  <defs>
    <linearGradient id="grad1" x1="0" y1="0" x2="32" y2="32" gradientUnits="userSpaceOnUse">
      <stop stop-color="#4F46E5"/>
      <stop offset="1" stop-color="#9333EA"/>
    </linearGradient>
  </defs>
</svg>
